<?xml version="1.0" encoding="UTF-8" standalone="no"?>
<!-- Created with Inkscape (http://www.inkscape.org/) -->

<svg
   width="1000"
   height="1000"
   viewBox="0 0 264.58333 264.58333"
   version="1.1"
   id="svg1"
   inkscape:export-filename="items.png"
   inkscape:export-xdpi="96"
   inkscape:export-ydpi="96"
   inkscape:version="1.3.2 (091e20e, 2023-11-25)"
   sodipodi:docname="items.svg"
   xmlns:inkscape="http://www.inkscape.org/namespaces/inkscape"
   xmlns:sodipodi="http://sodipodi.sourceforge.net/DTD/sodipodi-0.dtd"
   xmlns="http://www.w3.org/2000/svg"
   xmlns:svg="http://www.w3.org/2000/svg">
  <sodipodi:namedview
     id="namedview1"
     pagecolor="#505050"
     bordercolor="#eeeeee"
     borderopacity="1"
     inkscape:showpageshadow="0"
     inkscape:pageopacity="0"
     inkscape:pagecheckerboard="0"
     inkscape:deskcolor="#505050"
     inkscape:document-units="mm"
     inkscape:zoom="1.4307099"
     inkscape:cx="93.310323"
     inkscape:cy="86.670263"
     inkscape:window-width="1920"
     inkscape:window-height="1019"
     inkscape:window-x="0"
     inkscape:window-y="31"
     inkscape:window-maximized="1"
     inkscape:current-layer="layer1" />
  <defs
     id="defs1" />
  <g
     inkscape:label="Layer 1"
     inkscape:groupmode="layer"
     id="layer1">
    <rect
       style="fill:#f9f9f9;stroke-width:0.219692;fill-opacity:0.5"
       id="rect2"
       width="14.552083"
       height="6.6145835"
       x="5.953125"
       y="9.921875" />
    <rect
       style="fill:#999999;stroke-width:0.277311"
       id="rect1"
       width="13.229167"
       height="5.2916665"
       x="6.6145835"
       y="10.583333" />
    <path
       style="fill:#ffffff;fill-opacity:0.503333;stroke-width:0.397291"
       d="m 45.805015,3.8153547 2.522418,2.2993801 c 0,0 1.609377,1.1180244 0.170908,2.5548546 C 47.059872,10.10641 33.356817,22.634475 33.356817,22.634475 c 0,0 -1.726745,0.264469 -2.498539,-0.33905 -0.771791,-0.603512 -1.118504,-0.795136 -0.333754,-2.395453 0.784731,-1.600311 12.5083,-15.4523931 12.711351,-15.3981267 0.203037,0.054352 1.312065,-1.0073545 2.56914,-0.6864906 z"
       id="path5-6" />
    <path
       style="fill:#552200;stroke-width:0.330576"
       d="m 45.805922,4.9279289 1.784433,1.8391145 c 0,0 1.181094,0.875682 -0.171711,2.1709375 C 46.065834,10.233229 33.32016,21.583082 33.32016,21.583082 c 0,0 -1.445803,0.30923 -2.003994,-0.168163 -0.558198,-0.477388 -0.818647,-0.624045 0.01896,-2.027082 0.837593,-1.403031 12.124318,-13.7863458 12.283921,-13.7498949 0.159581,0.036526 1.196952,-0.9228009 2.18688,-0.7100071 z"
       id="path5" />
  </g>
</svg>
