<?xml version="1.0" encoding="UTF-8" standalone="no"?>
<!-- Created with Inkscape (http://www.inkscape.org/) -->

<svg
   width="1000"
   height="1000"
   viewBox="0 0 264.58333 264.58333"
   version="1.1"
   id="svg1"
   inkscape:export-filename="particles.png"
   inkscape:export-xdpi="96"
   inkscape:export-ydpi="96"
   inkscape:version="1.3.2 (091e20e, 2023-11-25)"
   sodipodi:docname="particles.svg"
   xml:space="preserve"
   xmlns:inkscape="http://www.inkscape.org/namespaces/inkscape"
   xmlns:sodipodi="http://sodipodi.sourceforge.net/DTD/sodipodi-0.dtd"
   xmlns="http://www.w3.org/2000/svg"
   xmlns:svg="http://www.w3.org/2000/svg"><sodipodi:namedview
     id="namedview1"
     pagecolor="#505050"
     bordercolor="#eeeeee"
     borderopacity="1"
     inkscape:showpageshadow="0"
     inkscape:pageopacity="0"
     inkscape:pagecheckerboard="0"
     inkscape:deskcolor="#505050"
     inkscape:document-units="mm"
     inkscape:zoom="2.0223254"
     inkscape:cx="117.43906"
     inkscape:cy="190.3749"
     inkscape:window-width="1920"
     inkscape:window-height="1019"
     inkscape:window-x="0"
     inkscape:window-y="31"
     inkscape:window-maximized="1"
     inkscape:current-layer="layer1" /><defs
     id="defs1" /><g
     inkscape:label="Layer 1"
     inkscape:groupmode="layer"
     id="layer1"><path
       style="fill:#ffffff;fill-opacity:0.50333297;stroke-width:0.0906334"
       d="M 36.537042,0.00826574 41.61359,5.5960056 40.829377,5.1285353 41.728099,7.5548795 41.983263,7.2854537 c 0,0 1.755142,5.8540803 0.641514,10.1056183 -1.113628,4.251541 -0.260139,-0.384901 -0.260139,-0.384901 0,0 -1.1459,3.389677 -2.168345,5.515639 -1.022445,2.125966 -0.557082,0.935629 -0.557082,0.935629 l -0.515345,-2.366977 -2.46843,5.367872 1.265933,-5.678685 -1.328511,1.769255 c 0,0 3.734905,-6.620697 2.506431,-14.1219055 -1.228473,-7.50120709 -0.09103,-0.01077 -0.09103,-0.01077 l -0.07024,1.4607875 c 0,0 -0.889221,-7.8119102 -1.931271,-8.92131029 -1.042053,-1.10939767 -0.469706,-0.94743337 -0.469706,-0.94743337 z"
       id="path4-8" /><path
       style="fill:#ffffff;fill-opacity:0.50333297;stroke-width:0.264583"
       d="m 14.524044,14.041806 c 0,0 -2.020079,7.200193 -4.6715944,8.630306 -2.651517,1.430112 3.0537034,-2.16988 3.0537034,-2.16988 l -4.0274404,4.172693 2.5182654,-1.416058 -0.35083,2.375948 c 0,0 2.572186,-2.524604 3.034539,-4.734517 0.462354,-2.209917 0.39237,0.631859 0.39237,0.631859 0,0 0.253502,-2.807496 0.121014,-5.932067 -0.132488,-3.12457 -0.07003,-1.558284 -0.07003,-1.558284 z"
       id="path5" /><path
       style="fill:#ffffff;fill-opacity:0.50333297;stroke-width:0.264583"
       d="m 62.784893,0.1796759 c 0,0 3.183513,6.766738 2.114101,9.583139 -1.069414,2.8164011 0.889521,-3.638988 0.889521,-3.638988 l -0.315429,5.7906951 0.977841,-2.7185861 1.289298,2.0263081 c 0,0 0.293285,-3.5921791 -0.803037,-5.5658971 -1.096324,-1.973722 0.710152,0.221098 0.710152,0.221098 0,0 -1.645265,-2.288974 -3.789892,-4.565171 -2.144625,-2.276197 -1.072558,-1.132596 -1.072558,-1.132596 z"
       id="path5-7" /></g></svg>
